<?xml version="1.0" standalone="no"?><!DOCTYPE svg PUBLIC "-//W3C//DTD SVG 1.1//EN" "http://www.w3.org/Graphics/SVG/1.1/DTD/svg11.dtd"><svg t="1639535595605" class="icon" viewBox="0 0 1024 1024" version="1.1" xmlns="http://www.w3.org/2000/svg" p-id="19501" xmlns:xlink="http://www.w3.org/1999/xlink" width="200" height="200"><defs><style type="text/css"></style></defs><path d="M232.5 105.2v813.6h559V105.2h-559z m513 767.6h-467V151.2h467v721.6z" p-id="19502"></path><path d="M384.8 189.2h254.4v46H384.8zM695.9 266.2H328.1v495.3h367.8V266.2z m-46 449.3H374.1V312.2h275.8v403.3zM512.3 783.6c-16.3 0-29.5 13.3-29.5 29.5s13.3 29.5 29.5 29.5 29.5-13.3 29.5-29.5-13.2-29.5-29.5-29.5z m0 46c-9.1 0-16.5-7.4-16.5-16.5s7.4-16.5 16.5-16.5 16.5 7.4 16.5 16.5-7.4 16.5-16.5 16.5z" p-id="19503"></path></svg>