<?xml version="1.0" standalone="no"?><!DOCTYPE svg PUBLIC "-//W3C//DTD SVG 1.1//EN" "http://www.w3.org/Graphics/SVG/1.1/DTD/svg11.dtd"><svg t="1639536775689" class="icon" viewBox="0 0 1024 1024" version="1.1" xmlns="http://www.w3.org/2000/svg" p-id="29827" xmlns:xlink="http://www.w3.org/1999/xlink" width="200" height="200"><defs><style type="text/css"></style></defs><path d="M995.555556 967.111111H56.888889V28.444444a28.444444 28.444444 0 0 0-56.888889 0v967.111112a28.444444 28.444444 0 0 0 28.444444 28.444444h967.111112a28.444444 28.444444 0 0 0 0-56.888889z" p-id="29828"></path><path d="M239.502222 712.817778A85.902222 85.902222 0 1 0 154.168889 625.777778a85.902222 85.902222 0 0 0 85.333333 87.04z m0-113.777778a29.013333 29.013333 0 1 1-28.444444 29.013333 29.013333 29.013333 0 0 1 28.444444-30.151111zM467.057778 885.76a85.902222 85.902222 0 1 0-85.333334-85.902222 85.902222 85.902222 0 0 0 85.333334 85.902222z m0-113.777778a29.013333 29.013333 0 1 1-28.444445 29.013334 29.013333 29.013333 0 0 1 28.444445-30.72zM865.28 828.302222a85.902222 85.902222 0 1 0-85.333333-88.746666 85.902222 85.902222 0 0 0 85.333333 88.746666z m0-113.777778a29.013333 29.013333 0 1 1-28.444444 29.013334 29.013333 29.013333 0 0 1 28.444444-30.72zM694.613333 597.902222A85.902222 85.902222 0 1 0 609.28 512a85.902222 85.902222 0 0 0 85.333333 85.902222z m0-113.777778a29.013333 29.013333 0 1 1-28.444444 29.013334 29.013333 29.013333 0 0 1 28.444444-30.151111zM467.057778 368.071111A85.902222 85.902222 0 1 0 381.724444 284.444444a85.902222 85.902222 0 0 0 85.333334 83.626667z m0-113.777778a29.013333 29.013333 0 1 1-28.444445 29.013334 29.013333 29.013333 0 0 1 28.444445-30.151111z" p-id="29829"></path></svg>