<?xml version="1.0" standalone="no"?><!DOCTYPE svg PUBLIC "-//W3C//DTD SVG 1.1//EN" "http://www.w3.org/Graphics/SVG/1.1/DTD/svg11.dtd"><svg t="1639538482386" class="icon" viewBox="0 0 1024 1024" version="1.1" xmlns="http://www.w3.org/2000/svg" p-id="45658" xmlns:xlink="http://www.w3.org/1999/xlink" width="200" height="200"><defs><style type="text/css"></style></defs><path d="M191.949133 400.165316m47.987284 0l287.9237 0q47.987283 0 47.987283 47.987284l0 0q0 47.987283-47.987283 47.987283l-287.9237 0q-47.987283 0-47.987284-47.987283l0 0q0-47.987283 47.987284-47.987284Z" p-id="45659"></path><path d="M191.949133 592.11445m47.987284 0l159.957611 0q47.987283 0 47.987283 47.987283l0 0q0 47.987283-47.987283 47.987283l-159.957611 0q-47.987283 0-47.987284-47.987283l0 0q0-47.987283 47.987284-47.987283Z" p-id="45660"></path><path d="M621.275362 1024c-23.673726-21.114405-47.347453-40.949148-70.381349-59.504231a218.822012 218.822012 0 0 0 63.983045-96.614398 614.877058 614.877058 0 0 0 12.796608-144.60168V544.127166a32.631353 32.631353 0 0 1 31.991523-31.991522h332.072001a31.991522 31.991522 0 0 1 31.991522 31.991522v373.02115a111.970328 111.970328 0 0 1-19.834744 72.30084 72.940671 72.940671 0 0 1-55.665249 26.872879h-119.648293a609.118584 609.118584 0 0 0-21.114404-83.177958c35.830505 0 67.182197 3.199152 94.055075 3.199152s42.228809-13.436439 42.228809-39.669488v-39.029657h-243.775399a250.173704 250.173704 0 0 1-25.593218 94.694906A319.915222 319.915222 0 0 1 621.275362 1024zM703.813489 785.343244h239.296587v-63.983044H703.813489v63.983044z m239.296587-199.627099H703.813489v63.983045h238.656756z" p-id="45661"></path><path d="M895.762623 269.639905v68.461858a46.707622 46.707622 0 0 1-92.775415 0v-38.389827a63.983044 63.983044 0 0 0-63.983044-63.983044h-191.949134a92.775415 92.775415 0 0 0 7.677966-26.872879 69.741518 69.741518 0 0 0 0-16.635591 105.572023 105.572023 0 0 0-11.516948-49.266945A110.690667 110.690667 0 0 0 511.864356 101.364498a111.330497 111.330497 0 0 0-127.966089 0 110.690667 110.690667 0 0 0-35.190675 41.588979 105.572023 105.572023 0 0 0-12.796608 49.266945 69.741518 69.741518 0 0 0 0 16.635591 92.775415 92.775415 0 0 0 7.677965 26.872879H156.758459a63.983044 63.983044 0 0 0-63.983044 63.983044v566.889775a63.983044 63.983044 0 0 0 63.983044 63.983044h116.449141a46.707622 46.707622 0 0 1 0 93.415245H127.966089a127.966089 127.966089 0 0 1-127.966089-127.966089V270.919566a127.966089 127.966089 0 0 1 127.966089-127.966089h135.004224a37.110166 37.110166 0 0 1 0-8.957626 191.949133 191.949133 0 0 1 365.983014 0 37.110166 37.110166 0 0 1 0 8.957626H767.796534a127.966089 127.966089 0 0 1 127.966089 126.686428z" p-id="45662"></path></svg>