<?xml version="1.0" standalone="no"?><!DOCTYPE svg PUBLIC "-//W3C//DTD SVG 1.1//EN" "http://www.w3.org/Graphics/SVG/1.1/DTD/svg11.dtd"><svg t="1639538238889" class="icon" viewBox="0 0 1024 1024" version="1.1" xmlns="http://www.w3.org/2000/svg" p-id="42036" xmlns:xlink="http://www.w3.org/1999/xlink" width="200" height="200"><defs><style type="text/css"></style></defs><path d="M310.186667 785.706667h-170.666667V138.666667h646.186667v133.76a37.333333 37.333333 0 0 0 74.666666 0v-170.666667A37.333333 37.333333 0 0 0 823.04 64H101.333333A37.333333 37.333333 0 0 0 64 101.333333v721.706667a37.333333 37.333333 0 0 0 37.333333 37.333333h208.853334a37.333333 37.333333 0 0 0 0-74.666666z" p-id="42037"></path><path d="M522.026667 243.2a160 160 0 0 0-114.346667-47.786667 160 160 0 0 0-114.346667 47.786667 163.413333 163.413333 0 0 0-23.04 200.32l-85.333333 86.613333a37.333333 37.333333 0 0 0 26.453333 64 36.693333 36.693333 0 0 0 26.453334-11.093333l85.333333-85.333333a160.213333 160.213333 0 0 0 85.333333 24.106666 159.786667 159.786667 0 0 0 114.346667-47.573333 163.413333 163.413333 0 0 0-0.853333-231.04zM469.333333 420.266667a87.466667 87.466667 0 0 1-122.88-124.373334 85.333333 85.333333 0 0 1 61.44-25.813333A85.333333 85.333333 0 0 1 469.333333 295.893333a88.32 88.32 0 0 1 0 124.373334zM942.08 536.106667L746.666667 417.92a36.906667 36.906667 0 0 0-38.613334 0L512 536.106667a37.12 37.12 0 0 0-17.92 31.786666v236.586667a37.76 37.76 0 0 0 17.92 32l195.413333 118.186667a37.546667 37.546667 0 0 0 38.613334 0l195.413333-118.186667a37.76 37.76 0 0 0 17.92-32V567.893333a37.12 37.12 0 0 0-17.28-31.786666zM885.333333 783.36l-158.08 95.573333-157.866666-95.573333v-194.346667l157.866666-95.573333 158.08 95.573333z" p-id="42038"></path><path d="M689.92 584.32v106.666667a37.333333 37.333333 0 0 0 74.666667 0v-106.666667a37.333333 37.333333 0 0 0-74.666667 0zM727.253333 753.28a30.933333 30.933333 0 1 0 30.933334 30.72 30.72 30.72 0 0 0-30.933334-30.72z" p-id="42039"></path></svg>