<?xml version="1.0" standalone="no"?><!DOCTYPE svg PUBLIC "-//W3C//DTD SVG 1.1//EN" "http://www.w3.org/Graphics/SVG/1.1/DTD/svg11.dtd"><svg t="1639535943542" class="icon" viewBox="0 0 1093 1024" version="1.1" xmlns="http://www.w3.org/2000/svg" p-id="22315" xmlns:xlink="http://www.w3.org/1999/xlink" width="213.4765625" height="200"><defs><style type="text/css"></style></defs><path d="M337.169067 955.733333H716.8a34.133333 34.133333 0 0 0 34.133333-34.133333V750.933333l68.266667-68.266666v273.066666a68.266667 68.266667 0 0 1-68.266667 68.266667H68.266667a68.266667 68.266667 0 0 1-68.266667-68.266667V68.266667a68.266667 68.266667 0 0 1 68.266667-68.266667h682.666666a68.266667 68.266667 0 0 1 68.266667 68.266667v68.266666l-68.266667 68.266667V102.4a34.133333 34.133333 0 0 0-34.133333-34.133333h-614.4a34.133333 34.133333 0 0 0-34.133333 34.133333v819.2a34.133333 34.133333 0 0 0 34.133333 34.133333h137.147733l68.266667-239.684266 551.389867-551.389867a136.533333 136.533333 0 1 1 193.058133 193.058133l-551.389867 551.389867L337.237333 955.733333zM136.533333 204.8h546.133334v68.266667H136.533333V204.8z m0 136.533333h409.6v68.266667H136.533333V341.333333z m0 136.533334h273.066667v68.266666H136.533333V477.866667z m867.464534-264.942934a68.266667 68.266667 0 0 0-96.529067 0l-48.264533 48.264534L955.733333 357.717333l48.264534-48.264533a68.266667 68.266667 0 0 0 0-96.529067z m-193.1264 96.529067L424.7552 695.637333l96.529067 96.529067 386.184533-386.184533-96.597333-96.529067z m-434.3808 434.449067l-46.830934 146.295466 143.36-49.7664-96.529066-96.529066z" p-id="22316"></path></svg>