<?xml version="1.0" standalone="no"?><!DOCTYPE svg PUBLIC "-//W3C//DTD SVG 1.1//EN" "http://www.w3.org/Graphics/SVG/1.1/DTD/svg11.dtd"><svg t="1639536263288" class="icon" viewBox="0 0 1024 1024" version="1.1" xmlns="http://www.w3.org/2000/svg" p-id="25312" xmlns:xlink="http://www.w3.org/1999/xlink" width="200" height="200"><defs><style type="text/css"></style></defs><path d="M791.272727 162.909091h-74.472727l-76.8-76.8c-4.654545-4.654545-11.636364-6.981818-18.618182-6.981818H232.727273c-39.563636 0-69.818182 32.581818-69.818182 69.818182V791.272727c0 39.563636 32.581818 69.818182 69.818182 69.818182h13.963636v13.963636c0 39.563636 32.581818 69.818182 69.818182 69.818182H791.272727c39.563636 0 69.818182-32.581818 69.818182-69.818182V232.727273c0-39.563636-30.254545-69.818182-69.818182-69.818182z m-144.290909 9.309091l32.581818 32.581818h-18.618181c-9.309091 0-13.963636-6.981818-13.963637-13.963636v-18.618182zM218.763636 791.272727V146.618182c0-6.981818 6.981818-13.963636 13.963637-13.963637h358.4v58.181819c0 39.563636 32.581818 69.818182 69.818182 69.818181h58.181818V791.272727c0 6.981818-6.981818 13.963636-13.963637 13.963637H232.727273c-6.981818 0-13.963636-6.981818-13.963637-13.963637z m586.472728 86.109091c0 6.981818-6.981818 13.963636-13.963637 13.963637H318.836364c-6.981818 0-13.963636-6.981818-13.963637-13.963637V861.090909h400.290909c39.563636 0 69.818182-32.581818 69.818182-69.818182V232.727273c0-4.654545-2.327273-9.309091-4.654545-13.963637h20.945454c9.309091 0 13.963636 6.981818 13.963637 13.963637v644.654545z" fill="#2A2E38" p-id="25313"></path><path d="M467.781818 290.909091c-109.381818 0-197.818182 88.436364-197.818182 197.818182s88.436364 197.818182 197.818182 197.818182 197.818182-88.436364 197.818182-197.818182-88.436364-197.818182-197.818182-197.818182z m0 339.781818c-79.127273 0-141.963636-62.836364-141.963636-141.963636s62.836364-141.963636 141.963636-141.963637c79.127273 0 141.963636 62.836364 141.963637 141.963637s-62.836364 141.963636-141.963637 141.963636z" fill="#2A2E38" p-id="25314"></path><path d="M537.6 460.8h-41.890909V418.909091c0-16.290909-11.636364-27.927273-27.927273-27.927273s-27.927273 11.636364-27.927273 27.927273v41.890909h-41.890909c-16.290909 0-27.927273 11.636364-27.927272 27.927273s11.636364 27.927273 27.927272 27.927272h41.890909V558.545455c0 16.290909 11.636364 27.927273 27.927273 27.927272s27.927273-11.636364 27.927273-27.927272v-41.89091h41.890909c16.290909 0 27.927273-11.636364 27.927273-27.927272s-11.636364-27.927273-27.927273-27.927273z" fill="#2A2E38" p-id="25315"></path></svg>