<?xml version="1.0" standalone="no"?><!DOCTYPE svg PUBLIC "-//W3C//DTD SVG 1.1//EN" "http://www.w3.org/Graphics/SVG/1.1/DTD/svg11.dtd"><svg t="1639536275184" class="icon" viewBox="0 0 1024 1024" version="1.1" xmlns="http://www.w3.org/2000/svg" p-id="25475" xmlns:xlink="http://www.w3.org/1999/xlink" width="200" height="200"><defs><style type="text/css"></style></defs><path d="M760.896 94C862.574 94 945 176.426 945 278.104v517.792C945 897.574 862.574 980 760.896 980H243.104C141.426 980 59 897.574 59 795.896V278.104C59 176.426 141.426 94 243.104 94h517.792z m0 59.834H243.104c-67.946 0-123.156 54.53-124.254 122.215l-0.016 2.055v517.792c0 67.946 54.53 123.156 122.215 124.254l2.055 0.016h517.792c67.946 0 123.156-54.53 124.254-122.215l0.016-2.055V278.104c0-67.946-54.53-123.156-122.215-124.254l-2.055-0.016z m-448.753 407.33c53.38 0 96.654 43.273 96.654 96.654 0 53.381-43.273 96.655-96.654 96.655-53.381 0-96.655-43.274-96.655-96.655 0-53.38 43.274-96.654 96.655-96.654z m0 46.026c-27.962 0-50.629 22.667-50.629 50.628 0 27.962 22.667 50.629 50.629 50.629 27.961 0 50.628-22.667 50.628-50.629 0-27.961-22.667-50.628-50.628-50.628z m487.875 20.71c16.523 0 29.917 13.395 29.917 29.917 0 16.523-13.394 29.917-29.917 29.917h-266.95c-16.523 0-29.917-13.394-29.917-29.917 0-16.522 13.394-29.917 29.917-29.917h266.95zM425.23 305.114c0.088 0.092 0.174 0.185 0.26 0.279 8.617 9.398 8.108 23.968-1.143 32.742l-110.51 104.812c-9.052 8.585-23.35 8.206-31.935-0.845a22.589 22.589 0 0 1-1.249-1.43 22.966 22.966 0 0 1-3.245-2.7l-59.546-59.546c-8.937-8.936-8.937-23.425 0-32.362 8.936-8.936 23.425-8.936 32.362 0l48.192 48.192 94.88-89.987c9.052-8.585 23.35-8.207 31.934 0.845z m374.788 39.728c16.523 0 29.917 13.394 29.917 29.916 0 16.523-13.394 29.917-29.917 29.917h-266.95c-16.523 0-29.917-13.394-29.917-29.917 0-16.522 13.394-29.916 29.917-29.916h266.95z" p-id="25476"></path></svg>