<?xml version="1.0" standalone="no"?><!DOCTYPE svg PUBLIC "-//W3C//DTD SVG 1.1//EN" "http://www.w3.org/Graphics/SVG/1.1/DTD/svg11.dtd"><svg t="1639533687097" class="icon" viewBox="0 0 1024 1024" version="1.1" xmlns="http://www.w3.org/2000/svg" p-id="15080" xmlns:xlink="http://www.w3.org/1999/xlink" width="200" height="200"><defs><style type="text/css"></style></defs><path d="M429.2608 815.104a278.528 278.528 0 0 1-106.86464-25.96864c-49.152-23.63392-80.85504-61.44-94.208-111.8208h7.45472a20.97152 20.97152 0 0 0 18.30912-31.29344L199.55712 552.96a21.05344 21.05344 0 0 0-36.41344 0l-54.64064 93.14304a20.97152 20.97152 0 0 0 18.26816 31.41632h15.27808c19.49696 106.74176 88.76032 160.52224 143.5648 186.73664a365.568 365.568 0 0 0 143.64672 34.36544 41.94304 41.94304 0 0 0 42.06592-41.73824 41.28768 41.28768 0 0 0-12.288-29.57312 41.984 41.984 0 0 0-29.77792-12.20608zM915.6608 389.12a21.01248 21.01248 0 0 0-18.35008-10.73152h-15.27808c-19.49696-106.74176-88.80128-160.52224-143.5648-186.85952a365.48608 365.48608 0 0 0-143.64672-34.36544 41.73824 41.73824 0 1 0 0 83.43552 282.624 282.624 0 0 1 106.9056 25.96864c49.152 23.67488 80.85504 61.44 94.208 111.8208h-7.45472a20.97152 20.97152 0 0 0-18.432 31.62112l54.35392 93.06112a21.05344 21.05344 0 0 0 36.41344 0l54.272-92.93824a20.80768 20.80768 0 0 0 0.57344-21.01248zM835.01056 527.64672h-271.68768a51.6096 51.6096 0 0 0-51.77344 51.32288v268.41088a51.6096 51.6096 0 0 0 51.77344 51.32288h271.68768a51.6096 51.6096 0 0 0 51.77344-51.32288v-268.41088a51.6096 51.6096 0 0 0-51.77344-51.32288zM802.816 611.1232V815.104h-207.13472v-203.9808zM512 208.44544a51.6096 51.6096 0 0 0-51.77344-51.32288H188.416a51.6096 51.6096 0 0 0-51.73248 51.32288v268.41088A51.6096 51.6096 0 0 0 188.416 528.384h271.68768A51.6096 51.6096 0 0 0 512 476.85632z m-84.13184 32.1536v204.14464H220.81536V240.59904z" p-id="15081"></path></svg>