<?xml version="1.0" standalone="no"?><!DOCTYPE svg PUBLIC "-//W3C//DTD SVG 1.1//EN" "http://www.w3.org/Graphics/SVG/1.1/DTD/svg11.dtd"><svg t="1639536077029" class="icon" viewBox="0 0 1024 1024" version="1.1" xmlns="http://www.w3.org/2000/svg" p-id="23379" xmlns:xlink="http://www.w3.org/1999/xlink" width="200" height="200"><defs><style type="text/css"></style></defs><path d="M480 257.984A256.032 256.032 0 0 0 512 768a256.032 256.032 0 0 0 254.016-224h-64.672A192.064 192.064 0 0 1 320 512a192.064 192.064 0 0 1 160-189.344V257.984zM512 256v256h256a256 256 0 0 0-256-256z m156.8 288h-66.24A96.032 96.032 0 1 1 480 421.44V355.2a160.064 160.064 0 0 0 32 316.8 160.064 160.064 0 0 0 156.8-128z m-101.376 0H480v-87.424A64 64 0 1 0 567.424 544z m256.512 192H768v-32h128v128h-32v-96h-1.408A415.68 415.68 0 0 1 512 928a415.68 415.68 0 0 1-350.592-192h38.656c69.696 96.896 183.456 160 311.936 160s242.24-63.104 311.936-160zM128 352h96v32H96V256h32v95.712C190.752 201.536 339.04 96 512 96c173.056 0 321.44 105.664 384.128 256h-34.944C800.512 219.808 666.976 128 512 128c-154.976 0-288.512 91.808-349.184 224H128z m384 448a288 288 0 1 1 0-576 288 288 0 0 1 0 576z" p-id="23380"></path></svg>