<?xml version="1.0" standalone="no"?><!DOCTYPE svg PUBLIC "-//W3C//DTD SVG 1.1//EN" "http://www.w3.org/Graphics/SVG/1.1/DTD/svg11.dtd"><svg t="1639537449513" class="icon" viewBox="0 0 1024 1024" version="1.1" xmlns="http://www.w3.org/2000/svg" p-id="38204" xmlns:xlink="http://www.w3.org/1999/xlink" width="200" height="200"><defs><style type="text/css"></style></defs><path d="M924.21 669.72c-6.76-23.86-22.43-43.69-44.09-55.79-21.67-12.09-46.76-15.06-70.63-8.27-16.99 4.8-31.75 14.29-43.31 27.07l-47.21-26.37c13.04-27.55 20.56-58.2 20.56-90.65 0-56.2-22.05-107.23-57.75-145.31l51-54.48c16.61 10.3 35.68 15.86 55.56 15.86 1.2 0 2.39-0.02 3.59-0.06 28.29-0.92 54.54-12.83 73.88-33.5 19.35-20.69 29.49-47.66 28.56-75.94-0.94-28.3-12.84-54.56-33.52-73.9-42.64-39.9-109.86-37.67-149.81 4.95-19.35 20.69-29.49 47.66-28.56 75.94 0.7 21.19 7.56 41.23 19.63 58.07l-51.85 55.4c-34.88-24.99-77.47-39.87-123.55-39.87-27.73 0-54.16 5.49-78.47 15.18l-12.68-35.88c20.5-11.69 37.04-29.15 47.43-50.9 13.46-28.16 15.14-59.88 4.74-89.31-21.46-60.76-88.36-92.74-149.14-71.26-60.76 21.47-92.72 88.38-71.25 149.12 10.41 29.45 31.65 53.06 59.82 66.53 15.97 7.61 33.09 11.46 50.28 11.46 6.22 0 12.45-0.58 18.64-1.59l14.6 41.3c-58.19 38.03-96.8 103.64-96.8 178.2 0 62.57 27.3 118.73 70.42 157.71l-52.05 42.03c-22.06-20.31-49.82-33.12-80.18-36.35-37.47-3.95-74.16 6.86-103.44 30.49-29.27 23.64-47.59 57.28-51.57 94.69-3.98 37.43 6.85 74.16 30.49 103.43C155.32 942.11 196.12 960 237.26 960c31.08 0 62.36-10.21 88.38-31.21 29.27-23.64 47.59-57.28 51.57-94.69 3.23-30.37-3.44-60.21-18.65-86.04l60.64-48.97c31.59 18.59 68.25 29.44 107.48 29.44 69.9 0 131.85-34.03 170.68-86.22l48.37 27.02c-11.71 40.56 5.37 85.39 43.78 106.85 14.05 7.84 29.52 11.83 45.16 11.83 8.5 0 17.07-1.17 25.47-3.56 23.88-6.75 43.69-22.43 55.79-44.1 12.11-21.66 15.04-46.75 8.28-70.63zM345.2 248.5c-18.07-8.62-31.69-23.78-38.36-42.65-13.77-38.96 6.73-81.88 45.7-95.65 8.24-2.93 16.63-4.3 24.9-4.3 30.89 0 59.89 19.26 70.75 49.99 6.67 18.87 5.59 39.21-3.04 57.28-8.64 18.07-23.78 31.7-42.67 38.37-18.88 6.68-39.22 5.62-57.28-3.04z m-9.66 581.16c-2.79 26.3-15.67 49.91-36.23 66.51-42.46 34.28-104.89 27.65-139.18-14.8-16.61-20.57-24.21-46.37-21.42-72.67 2.79-26.3 15.67-49.91 36.23-66.51 17.77-14.37 39.47-22 62-22 3.54 0 7.09 0.18 10.66 0.57 26.29 2.78 49.91 15.66 66.52 36.22 16.61 20.58 24.21 46.39 21.42 72.68z m406.08-647.68c12.6-13.47 29.68-20.26 46.8-20.26 15.71 0 31.44 5.71 43.78 17.27 12.49 11.68 19.7 27.54 20.26 44.65s-5.57 33.42-17.26 45.92h-0.01c-11.68 12.5-27.55 19.71-44.66 20.26-16.73 0.98-33.4-5.57-45.91-17.27-12.49-11.68-19.7-27.54-20.26-44.65s5.56-33.42 17.26-45.92zM526.69 686.62c-94.25 0-170.93-76.68-170.93-170.92 0-94.26 76.68-170.94 170.93-170.94s170.92 76.68 170.92 170.94c0 94.24-76.67 170.92-170.92 170.92z m352.65 33.3c-6.64 11.89-17.52 20.48-30.62 24.21-13.08 3.72-26.86 2.09-38.76-4.54-24.56-13.71-33.39-44.84-19.68-69.39 6.64-11.89 17.53-20.48 30.63-24.21a51.04 51.04 0 0 1 13.98-1.94c8.58 0 17.08 2.19 24.78 6.49 11.9 6.65 20.49 17.52 24.21 30.63 3.72 13.08 2.1 26.86-4.54 38.75z" p-id="38205"></path></svg>