<?xml version="1.0" standalone="no"?><!DOCTYPE svg PUBLIC "-//W3C//DTD SVG 1.1//EN" "http://www.w3.org/Graphics/SVG/1.1/DTD/svg11.dtd"><svg t="1639532518553" class="icon" viewBox="0 0 1024 1024" version="1.1" xmlns="http://www.w3.org/2000/svg" p-id="4347" xmlns:xlink="http://www.w3.org/1999/xlink" width="200" height="200"><defs><style type="text/css"></style></defs><path d="M953.6 499.2c-6.4 6.4-19.2 12.8-25.6 12.8-6.4 0-12.8 0-19.2-6.4L512 140.8 115.2 505.6c-12.8 12.8-32 6.4-44.8-6.4-12.8-12.8-6.4-32 6.4-44.8L512 51.2l435.2 403.2c12.8 12.8 19.2 32 6.4 44.8zM595.2 390.4c-12.8-12.8-32-6.4-44.8 6.4l-153.6 192 128 64-102.4 128c-12.8 12.8-6.4 32 6.4 44.8 6.4 6.4 12.8 6.4 19.2 6.4 6.4 0 19.2-6.4 25.6-12.8l153.6-192-128-64 102.4-128c12.8-12.8 6.4-32-6.4-44.8zM800 512c-19.2 0-32 12.8-32 32v256c0 51.2-44.8 96-96 96h-320c-51.2 0-96-44.8-96-96v-256c0-19.2-12.8-32-32-32s-32 12.8-32 32v256C192 889.6 262.4 960 352 960h320c89.6 0 160-70.4 160-160v-256c0-19.2-12.8-32-32-32z" fill="" p-id="4348"></path></svg>