<?xml version="1.0" standalone="no"?><!DOCTYPE svg PUBLIC "-//W3C//DTD SVG 1.1//EN" "http://www.w3.org/Graphics/SVG/1.1/DTD/svg11.dtd"><svg t="1639540085167" class="icon" viewBox="0 0 1024 1024" version="1.1" xmlns="http://www.w3.org/2000/svg" p-id="46496" xmlns:xlink="http://www.w3.org/1999/xlink" width="200" height="200"><defs><style type="text/css"></style></defs><path d="M491.085714 719.428571c-2.971429 0-5.942857-0.457143-8.914285-1.371428-11.657143-3.885714-19.542857-14.742857-19.542858-26.971429V569.6H402.285714c-10.857143 0-20.571429-6.057143-25.485714-15.771429-4.8-9.714286-3.771429-21.142857 2.742857-29.828571l157.371429-208c7.771429-10.285714 21.142857-14.057143 33.142857-9.257143 12 4.8 19.2 16.685714 17.714286 29.485714l-12.571429 114.514286h71.771429c10.742857 0 20.457143 5.942857 25.371428 15.542857 4.914286 9.6 3.885714 21.028571-2.514286 29.714286L513.942857 707.771429c-5.485714 7.428571-13.942857 11.657143-22.857143 11.657142z m-54.057143-195.542857H480c15.657143 0 28.457143 12.8 28.457143 28.457143v86.057143l104.457143-141.714286h-56.914286c-8.114286 0-15.771429-3.428571-21.142857-9.485714s-8-14.057143-7.085714-22.057143l7.885714-71.314286-98.628572 130.057143z" p-id="46497"></path><path d="M607.428571 1023.657143H434.514286c-12.8 0-23.314286-10.057143-24-22.742857l-7.428572-105.485715c-57.6-17.942857-110.628571-48.685714-154.971428-89.942857l-95.428572 46.514286c-5.257143 2.742857-11.314286 3.314286-17.142857 1.828571-6.171429-1.714286-11.314286-5.6-14.514286-11.2l-86.4-149.714285c-3.2-5.6-4.114286-12-2.4-18.171429 1.6-5.828571 5.142857-10.628571 10.057143-13.942857l87.771429-59.2c-6.857143-29.828571-10.4-60.457143-10.4-91.314286 0-29.828571 3.314286-59.542857 9.828571-88.457143L42.285714 363.085714c-5.028571-3.2-8.571429-8.114286-10.057143-13.942857-1.714286-6.171429-0.8-12.685714 2.4-18.171428l86.4-149.6c6.4-11.085714 20.342857-15.085714 31.657143-9.371429l93.257143 45.485714c44.914286-42.4 98.742857-73.942857 157.485714-92.114285l7.2-102.171429c0.685714-12.685714 11.2-22.742857 24-22.742857h172.8c12.8 0 23.314286 10.057143 24 22.742857l7.085715 101.028571c0.228571 0.114286 0.457143 0.114286 0.685714 0.228572 13.485714 4 26.857143 8.8 39.771429 14.285714l-17.714286 42.171429c-11.428571-4.8-23.314286-9.028571-35.314286-12.685715-4.571429-1.371429-9.371429-2.742857-14.057143-3.885714-10.057143-2.514286-17.257143-11.2-17.942857-21.6l-6.742857-96.457143H454.857143l-6.857143 97.485715c-0.685714 10.171429-7.885714 18.857143-17.714286 21.485714C368.685714 181.714286 312.342857 214.742857 267.428571 260.571429c-7.2 7.428571-18.4 9.371429-27.657142 4.8l-89.142858-43.428572-66.285714 114.4 83.2 56.114286c8.457143 5.714286 12.342857 16.228571 9.714286 26.057143-7.885714 29.828571-11.885714 60.8-11.885714 91.885714 0 32 4.228571 63.771429 12.571428 94.4 2.742857 9.942857-1.142857 20.457143-9.714286 26.171429l-83.885714 56.685714L150.514286 802.285714l91.314285-44.457143c9.257143-4.457143 20.228571-2.628571 27.542858 4.685715 44.457143 44.8 100 77.028571 160.685714 93.257143 9.942857 2.628571 17.028571 11.314286 17.714286 21.485714l7.085714 100.8h132.342857l6.971429-99.771429c0.685714-10.285714 8-18.971429 17.942857-21.6 61.485714-15.771429 117.828571-48 163.085714-93.028571 7.2-7.2 18.285714-9.028571 27.428571-4.571429L891.428571 802.285714l66.171429-114.628571-80.685714-54.514286c-8.571429-5.828571-12.457143-16.342857-9.714286-26.285714 8.8-31.314286 13.142857-63.771429 13.142857-96.457143 0-31.771429-4.228571-63.428571-12.457143-93.942857-2.628571-9.942857 1.257143-20.457143 9.714286-26.171429l80-54.057143L891.428571 221.714286l-86.628571 42.171428c-9.257143 4.571429-20.342857 2.628571-27.542857-4.685714-19.771429-20-41.828571-37.6-65.6-52.457143l24.228571-38.742857c22.4 13.942857 43.428571 30.171429 62.742857 48.228571l90.742858-44.228571c11.314286-5.714286 25.257143-1.714286 31.657142 9.371429l86.4 149.714285c3.2 5.6 4.114286 12 2.4 18.171429-1.6 5.828571-5.142857 10.628571-10.057142 13.942857l-83.771429 56.571429c6.857143 29.714286 10.285714 60.114286 10.285714 90.742857 0 31.657143-3.657143 62.971429-10.857143 93.485714l84.457143 57.028571c5.028571 3.2 8.571429 8.114286 10.057143 13.942858 1.714286 6.171429 0.8 12.685714-2.4 18.285714l-86.4 149.714286c-6.4 11.085714-20.342857 15.085714-31.657143 9.371428l-93.028571-45.257143c-45.142857 41.6-99.085714 72.457143-157.6 89.942857l-7.314286 104.228572c-0.914286 12.342857-11.314286 22.4-24.114286 22.4zM784.8 222.857143z" p-id="46498"></path></svg>