<?xml version="1.0" standalone="no"?><!DOCTYPE svg PUBLIC "-//W3C//DTD SVG 1.1//EN" "http://www.w3.org/Graphics/SVG/1.1/DTD/svg11.dtd"><svg t="1639533333114" class="icon" viewBox="0 0 1024 1024" version="1.1" xmlns="http://www.w3.org/2000/svg" p-id="11480" xmlns:xlink="http://www.w3.org/1999/xlink" width="200" height="200"><defs><style type="text/css"></style></defs><path d="M398.2 321.6c-1.3 77.4 38.6 149.6 104.9 189.6 64.6 38.6 145.2 38.6 209.8 0 65.4-39.4 105.2-110.3 104.9-186.6 1.6-57.1-19.8-112.4-59.4-153.5-39.6-41.1-94-64.7-151.1-65.3-117.2 1.9-210.8 98.5-209.1 215.8z m-6 222.3v-152c-1.6-16.9-16.5-29.4-33.4-28H97.7c-17.9 1.2-32.2 15.4-33.4 33.4v504.3h149c-39.3-166.3 52-278.4 178.9-357.7z m-227.1-92.4h134.1c10.5 0 19.1 8.5 19.1 19.1 0 10.5-8.5 19.1-19.1 19.1H165.1c-10.5 0-19.1-8.5-19.1-19.1 0-10.5 8.6-19.1 19.1-19.1zM146 535.6c0-5.1 2-9.9 5.6-13.5 3.6-3.6 8.4-5.6 13.5-5.6h134.1c10.5 0 19.1 8.5 19.1 19.1 0 10.5-8.5 19.1-19.1 19.1H165.1c-5.1 0-9.9-2-13.5-5.6-3.6-3.6-5.6-8.5-5.6-13.5z m0 0" p-id="11481"></path><path d="M740.3 577.9l-78.1 167.5-28-72.7c2.5-14.2 8.2-27.7 16.7-39.3 11.3-28 16.7-39.3-11.3-56-12.5-6.9-27.3-8.5-41-4.3s-25.1 13.7-31.7 26.4c-11.3 28 16.7 39.3 16.7 56-4 30.1-9.6 59.9-16.7 89.4-7.1 29.5 0 22.1-28-33.4-21.2-45.8-39.7-92.8-55.4-140.7-150.8 51.9-228.9 152-228.9 298.1 0 56 687.3 84 704-33.4 16.6-117.5-195.6-313-218.3-257v-0.6z m0 0" p-id="11482"></path></svg>