<?xml version="1.0" standalone="no"?><!DOCTYPE svg PUBLIC "-//W3C//DTD SVG 1.1//EN" "http://www.w3.org/Graphics/SVG/1.1/DTD/svg11.dtd"><svg t="1639537294346" class="icon" viewBox="0 0 1024 1024" version="1.1" xmlns="http://www.w3.org/2000/svg" p-id="34144" xmlns:xlink="http://www.w3.org/1999/xlink" width="200" height="200"><defs><style type="text/css"></style></defs><path d="M500.637666 60.235294h90.352941V0h-90.352941v60.235294z m171.610353 1.325177a30.117647 30.117647 0 0 1 20.992 24.997647c0.903529 7.137882 1.957647 14.938353 3.162353 23.431529l59.632941-8.463059a1529.675294 1529.675294 0 0 1-3.011765-22.588235A90.352941 90.352941 0 0 0 689.987313 4.035765l-17.769412 57.554823zM710.557666 199.981176l3.584 21.142589c2.800941 21.564235 6.324706 44.694588 10.390588 68.276706l59.361882-10.24a1663.728941 1663.728941 0 0 1-10.24-67.011765c-1.355294-8.342588-2.56-15.329882-3.674352-22.106353l-59.422118 9.938823z m31.744 179.471059c6.415059 29.063529 13.552941 58.729412 21.504 88.96753l58.277647-15.269647c-7.740235-29.515294-14.727529-58.428235-20.961882-86.678589l-58.819765 12.950589z m46.290823 177.242353c8.493176 28.521412 17.648941 57.524706 27.407059 87.04l57.193412-18.944c-9.577412-28.943059-18.552471-57.404235-26.895059-85.323294l-57.705412 17.227294z m57.133177 173.056c10.059294 28.009412 20.690824 56.440471 31.804235 85.293177l56.19953-21.684706a3918.004706 3918.004706 0 0 1-31.322353-83.998118l-56.681412 20.389647z m65.505882 170.014118c3.011765 7.408941 6.113882 14.817882 9.185883 22.287059l0.210823 0.481882a29.967059 29.967059 0 0 1-6.445176 32.165647l43.098353 42.074353a90.352941 90.352941 0 0 0 18.793411-97.792l-0.210823-0.481882c-2.861176-6.927059-5.903059-14.245647-8.884706-21.564236l-55.717647 22.829177zM851.658842 963.764706h-90.352941v60.235294h90.352941v-60.235294z m-180.705882 0h-90.352941v60.235294h90.352941v-60.235294z" p-id="34145"></path><path d="M500.637666 963.764706H105.494136a30.117647 30.117647 0 0 1-28.129882-40.899765c122.307765-319.337412 191.578353-553.411765 207.811765-703.548235 6.083765-56.560941 11.113412-100.773647 15.058823-132.638118A30.117647 30.117647 0 0 1 330.081431 60.235294h170.526117a30.117647 30.117647 0 1 0 0-60.235294h-170.526117A90.352941 90.352941 0 0 0 240.421195 79.329882c-3.945412 32.195765-9.005176 76.679529-15.149176 133.51153-15.510588 143.661176-83.576471 373.639529-204.16753 688.489412A90.352941 90.352941 0 0 0 105.494136 1024h395.14353a30.117647 30.117647 0 1 0 0-60.235294z" p-id="34146"></path><path d="M514.250842 436.615529l73.306353 38.972236a30.177882 30.177882 0 0 1 22.40753 23.853176 29.997176 29.997176 0 0 1-6.625883 26.202353l-81.257411 152.877177a30.117647 30.117647 0 1 1-53.187765-28.280471l70.26447-132.156235-79.119058-42.074353a30.057412 30.057412 0 0 1-15.480471-21.202824 29.997176 29.997176 0 0 1 2.800941-20.660706l56.560941-106.375529a30.117647 30.117647 0 1 1 53.187765 28.280471l-42.857412 80.564705z" p-id="34147"></path></svg>