<?xml version="1.0" standalone="no"?><!DOCTYPE svg PUBLIC "-//W3C//DTD SVG 1.1//EN" "http://www.w3.org/Graphics/SVG/1.1/DTD/svg11.dtd"><svg t="1640070502173" class="icon" viewBox="0 0 1024 1024" version="1.1" xmlns="http://www.w3.org/2000/svg" p-id="1458" xmlns:xlink="http://www.w3.org/1999/xlink" width="200" height="200"><defs><style type="text/css"></style></defs><path d="M478.037333 853.674667c-176.469333 0-320.170667-143.701333-320.170666-320.170667S301.397333 213.333333 478.037333 213.333333v-68.266666C263.850667 145.066667 89.6 319.317333 89.6 533.504s174.250667 388.437333 388.437333 388.437333c212.821333 0 387.072-173.226667 388.266667-386.048l-68.266667-0.341333c-1.024 175.445333-144.554667 318.122667-320 318.122667z" p-id="1459"></path><path d="M520.704 94.208v398.506667h395.946667c0-0.853333 0.170667-1.536 0.170666-2.389334 0-218.794667-177.322667-396.117333-396.117333-396.117333z m68.266667 330.24V169.642667c126.976 26.965333 226.816 127.658667 252.928 254.805333H588.970667z" p-id="1460"></path></svg>