<?xml version="1.0" standalone="no"?><!DOCTYPE svg PUBLIC "-//W3C//DTD SVG 1.1//EN" "http://www.w3.org/Graphics/SVG/1.1/DTD/svg11.dtd"><svg t="1639533962116" class="icon" viewBox="0 0 1024 1024" version="1.1" xmlns="http://www.w3.org/2000/svg" p-id="18543" xmlns:xlink="http://www.w3.org/1999/xlink" width="200" height="200"><defs><style type="text/css"></style></defs><path d="M642.096551 721.027523l173.798165 173.798165 96.293578-82.201835-39.926605-58.715596a425.100917 425.100917 0 0 0 89.247706-389.87156l-44.623853 11.74312c30.53211 117.431193 2.348624 241.908257-72.807339 335.853211l-30.532111-44.623854c56.366972-79.853211 77.504587-180.844037 54.018349-274.788991l-44.623853 11.74312c18.788991 77.504587 4.697248 157.357798-37.577982 223.119266l-110.385321-162.055046-32.880734 25.834862v-9.394495-4.697248c0-11.743119-2.348624-23.486239-7.045871-35.229358l28.183486 9.394496 103.339449-408.660551-119.779816-42.275229-21.137615 49.321101c-126.825688-23.486239-258.348624 9.394495-356.990825 91.59633l30.53211 35.229358c86.899083-70.458716 197.284404-100.990826 307.669724-82.201835l-23.486238 49.321101c-91.59633-11.743119-183.192661 16.440367-253.651376 75.155963l30.53211 35.229358c56.366972-46.972477 129.174312-70.458716 204.330275-65.761468l-91.59633 197.284404c-7.045872 4.697248-11.743119 7.045872-18.788991 11.743119l-2.348624-11.743119-406.311927 115.082569 21.137615 124.477064 46.972477-4.697248c16.440367 91.59633 63.412844 173.798165 131.522936 237.211009l32.880734-35.229357c-61.06422-54.018349-100.990826-126.825688-117.431193-206.678899l51.669725-4.697248c14.091743 65.761468 49.321101 126.825688 100.990826 173.798165l30.53211-35.229358c-42.275229-37.577982-72.807339-89.247706-84.550459-143.266055l173.798165-16.440367-42.275229 387.522936h-270.091743v46.972477h845.504587v-46.972477h-298.275229l-25.834863-256z m32.880734-659.963303l37.577982 14.091743-79.853211 317.06422-93.944954-35.229357 136.220183-295.926606z m173.798165 744.513762l-30.53211 25.834862-230.165137-232.513761 77.504587-63.412844 183.19266 270.091743z m-314.715596-389.87156c35.229358 0 63.412844 30.53211 63.412844 65.761468v4.697248c-2.348624 37.577982-32.880734 63.412844-70.458716 63.412844-21.137615 0-37.577982-11.743119-49.321101-25.834863l-9.394495-61.06422c7.045872-28.183486 35.229358-49.321101 65.761468-46.972477z m-425.100917 157.357798l-7.045872-39.926605 314.715596-89.247707 2.348624 16.440367c-2.348624 7.045872-2.348624 16.440367-2.348624 25.834863 0 18.788991 7.045872 37.577982 16.440367 54.018348v2.348624l-324.110091 30.53211z m375.779816 11.743119c11.743119 4.697248 23.486239 7.045872 35.229358 9.394496l-2.348624 2.348624 70.458716 70.458715 32.880734 307.669725h-180.844037l44.623853-389.87156z" p-id="18544"></path></svg>