<?xml version="1.0" standalone="no"?><!DOCTYPE svg PUBLIC "-//W3C//DTD SVG 1.1//EN" "http://www.w3.org/Graphics/SVG/1.1/DTD/svg11.dtd"><svg t="1639537834714" class="icon" viewBox="0 0 1024 1024" version="1.1" xmlns="http://www.w3.org/2000/svg" p-id="38998" xmlns:xlink="http://www.w3.org/1999/xlink" width="200" height="200"><defs><style type="text/css"></style></defs><path d="M865.28 690.688H158.72a30.208 30.208 0 0 1-30.72-30.72v-501.76c0-17.408 13.312-30.72 30.72-30.72h706.56c17.408 0 30.72 13.312 30.72 30.72v501.76c0 16.896-13.824 30.72-30.72 30.72z m-686.08-51.2h665.6v-460.8h-665.6v460.8zM640.512 780.288h-256c-14.336 0-25.6-11.264-25.6-25.6s11.264-25.6 25.6-25.6h256c14.336 0 25.6 11.264 25.6 25.6s-11.776 25.6-25.6 25.6zM742.912 895.488h-460.8c-14.336 0-25.6-11.264-25.6-25.6s11.264-25.6 25.6-25.6h460.8c14.336 0 25.6 11.264 25.6 25.6s-11.776 25.6-25.6 25.6z" p-id="38999"></path><path d="M405.504 517.632c-10.24-10.24-10.24-26.112 0-36.352l181.248-181.248c10.24-10.24 26.112-10.24 36.352 0 10.24 10.24 10.24 26.112 0 36.352l-181.248 181.248c-10.24 9.728-26.624 9.728-36.352 0z" p-id="39000"></path><path d="M661.504 297.472c-10.24 10.24-26.112 10.24-36.352 0s-10.24-26.112 0-36.352l26.112-26.112c-4.096-1.024-8.192-2.56-12.288-2.56-28.16 0-51.2 23.04-51.2 51.2s23.04 51.2 51.2 51.2 51.2-23.04 51.2-51.2c0-4.608-1.536-8.192-2.56-12.288l-26.112 26.112zM363.52 523.264c10.24-10.24 26.112-10.24 36.352 0s10.24 26.112 0 36.352l-26.112 25.6c4.096 1.024 8.192 2.56 12.288 2.56 28.16 0 51.2-23.04 51.2-51.2s-23.04-51.2-51.2-51.2-51.2 23.04-51.2 51.2c0 4.608 1.536 8.192 2.56 12.288l26.112-25.6z" p-id="39001"></path><path d="M667.648 529.408l-26.624-11.776-80.384-83.456-25.6 25.6 84.48 79.36 13.824 28.16 34.816 20.48 22.016-21.504z" p-id="39002"></path><path d="M455.68 389.632L342.528 276.48c-10.24-10.24-10.24-26.112 0-36.352 10.24-10.24 26.112-10.24 36.352 0L492.032 353.28l-36.352 36.352z" p-id="39003"></path></svg>