<?xml version="1.0" standalone="no"?><!DOCTYPE svg PUBLIC "-//W3C//DTD SVG 1.1//EN" "http://www.w3.org/Graphics/SVG/1.1/DTD/svg11.dtd"><svg t="1626939105367" class="icon" viewBox="0 0 1024 1024" version="1.1" xmlns="http://www.w3.org/2000/svg" p-id="1381" xmlns:xlink="http://www.w3.org/1999/xlink" width="200" height="200"><defs><style type="text/css">@font-face { font-family: feedback-iconfont; src: url("//at.alicdn.com/t/font_1031158_1uhr8ri0pk5.eot?#iefix") format("embedded-opentype"), url("//at.alicdn.com/t/font_1031158_1uhr8ri0pk5.woff2") format("woff2"), url("//at.alicdn.com/t/font_1031158_1uhr8ri0pk5.woff") format("woff"), url("//at.alicdn.com/t/font_1031158_1uhr8ri0pk5.ttf") format("truetype"), url("//at.alicdn.com/t/font_1031158_1uhr8ri0pk5.svg#iconfont") format("svg"); }
</style></defs><path d="M885.248 128H138.752C110.08 128 87.04 151.04 87.04 179.712v703.488c0 28.672 23.04 51.712 51.712 51.712h745.984c28.672 0 51.712-23.552 51.712-51.712V179.712c0.512-28.672-23.04-51.712-51.2-51.712z m10.24 755.2c0 5.632-4.608 10.752-10.752 10.752H138.752c-5.632 0-10.24-4.608-10.24-10.752v-542.72h766.976v542.72zM128.512 299.008V179.712c0-5.632 4.608-10.24 10.24-10.24h745.984c5.632 0 10.752 4.608 10.752 10.24v119.296H128.512z" fill="#666666" p-id="1382"></path><path d="M322.56 91.648c-11.264 0-20.48 9.216-20.48 20.48v97.28c0 11.264 9.216 20.48 20.48 20.48s20.48-9.216 20.48-20.48v-97.28c0-11.264-9.216-20.48-20.48-20.48zM701.44 91.648c-11.264 0-20.48 9.216-20.48 20.48v97.28c0 11.264 9.216 20.48 20.48 20.48s20.48-9.216 20.48-20.48v-97.28c0-11.264-9.216-20.48-20.48-20.48z" fill="#008CFF" p-id="1383"></path><path d="M640.512 436.736c14.336-1.536 26.624 9.216 26.624 23.552v274.944c0 6.144-1.024 11.776-3.584 16.896-2.56 5.12-5.632 9.728-10.24 13.312s-9.216 7.168-14.848 9.216c-5.632 2.048-11.776 3.584-18.432 3.584h-54.784c-6.144 0-11.776-4.096-13.312-10.24l-2.56-9.216c-2.048-8.704 4.096-16.896 13.312-16.896h38.912c6.656 0 12.8-2.048 17.408-6.656 4.608-4.608 7.168-9.728 7.168-16.384v-45.056h-189.44c-3.584 16.896-8.192 31.744-13.312 45.056-5.632 13.312-11.264 25.088-16.384 34.816-5.632 9.728-10.24 16.896-14.336 22.528-3.584 4.608-10.24 5.632-14.848 2.048l-12.8-10.752c-4.096-3.584-5.12-9.728-1.536-13.824 0.512-1.024 1.536-2.048 2.048-3.072 5.12-7.168 10.752-16.896 16.896-29.696 5.12-11.776 10.24-26.624 15.872-44.544 5.632-17.92 8.192-37.888 8.192-59.904V460.8c0-13.312 10.752-23.552 23.552-23.552v-0.512h210.432z m-14.336 192.512v-49.152c0-4.096-3.072-7.168-7.168-7.168h-168.96c-4.096 0-7.168 3.072-7.168 7.168v48.64c0 4.096 3.072 7.68 7.168 7.68h168.96c4.096 0 7.168-3.584 7.168-7.168z m-7.168-155.648h-168.96c-4.096 0-7.168 3.072-7.168 7.168v48.128c0 4.096 3.072 7.168 7.168 7.168h168.448c4.096 0 7.168-3.072 7.168-7.168v-48.128c0.512-4.096-2.56-7.168-6.656-7.168z" fill="#008CFF" p-id="1384"></path></svg>