<?xml version="1.0" standalone="no"?><!DOCTYPE svg PUBLIC "-//W3C//DTD SVG 1.1//EN" "http://www.w3.org/Graphics/SVG/1.1/DTD/svg11.dtd"><svg t="1626940156845" class="icon" viewBox="0 0 1024 1024" version="1.1" xmlns="http://www.w3.org/2000/svg" p-id="1379" xmlns:xlink="http://www.w3.org/1999/xlink" width="200" height="200"><defs><style type="text/css">@font-face { font-family: feedback-iconfont; src: url("//at.alicdn.com/t/font_1031158_1uhr8ri0pk5.eot?#iefix") format("embedded-opentype"), url("//at.alicdn.com/t/font_1031158_1uhr8ri0pk5.woff2") format("woff2"), url("//at.alicdn.com/t/font_1031158_1uhr8ri0pk5.woff") format("woff"), url("//at.alicdn.com/t/font_1031158_1uhr8ri0pk5.ttf") format("truetype"), url("//at.alicdn.com/t/font_1031158_1uhr8ri0pk5.svg#iconfont") format("svg"); }
</style></defs><path d="M562.7392 396.3392c3.9936-3.9936 5.9904-9.216 5.9904-14.4896s-1.9968-10.496-5.9904-14.4896c-0.0512-0.0512-0.0512-0.0512-0.1024-0.0512L404.0192 208.64a20.52096 20.52096 0 0 0-28.9792 0 20.52096 20.52096 0 0 0 0 28.9792l144.2304 144.2304-144.2304 144.2304a20.52096 20.52096 0 0 0 0 28.9792 20.52096 20.52096 0 0 0 28.9792 0l158.6688-158.6688 0.0512-0.0512z" fill="#008CFF" p-id="1380"></path><path d="M718.8992 396.3392c3.9936-3.9936 5.9904-9.216 5.9904-14.4896s-1.9968-10.496-5.9904-14.4896c-0.0512-0.0512-0.0512-0.0512-0.1024-0.0512L560.128 208.64a20.52096 20.52096 0 0 0-28.9792 0 20.52096 20.52096 0 0 0 0 28.9792l144.2304 144.2304-144.2304 144.2304a20.52096 20.52096 0 0 0 0 28.9792 20.52096 20.52096 0 0 0 28.9792 0l158.6688-158.6688c0.0512 0 0.0512 0 0.1024-0.0512z" fill="#008CFF" p-id="1381"></path><path d="M875.0592 367.36c-0.0512-0.0512-0.0512-0.0512-0.1024-0.0512L716.288 208.64a20.52096 20.52096 0 0 0-28.9792 0 20.52096 20.52096 0 0 0 0 28.9792l144.2304 144.2304-144.2304 144.2304a20.52096 20.52096 0 0 0 0 28.9792 20.52096 20.52096 0 0 0 28.9792 0l158.6688-158.6688c0.0512-0.0512 0.0512-0.0512 0.1024-0.0512 3.9936-3.9936 5.9904-9.216 5.9904-14.4896s-1.9968-10.496-5.9904-14.4896z" fill="#008CFF" p-id="1382"></path><path d="M253.44 680.96H911.36c11.3152 0 20.48-9.1648 20.48-20.48s-9.1648-20.48-20.48-20.48H253.44c-66.3552 0-120.1152-55.1936-117.6576-122.112C138.0864 454.0416 192.6656 404.48 256.5632 404.48H373.76c11.3152 0 20.48-9.1648 20.48-20.48s-9.1648-20.48-20.48-20.48H257.0752C170.5984 363.52 97.28 431.1552 94.7712 517.632c-2.56 89.6 69.632 163.328 158.6688 163.328zM916.48 778.24H231.68a188.16 188.16 0 0 1-112.0256-36.8128c-13.5168-9.984-32.6144-0.4096-32.6144 16.4352 0 6.5536 3.1744 12.6976 8.448 16.5888a228.82816 228.82816 0 0 0 136.192 44.7488H916.48c11.3152 0 20.48-9.1648 20.48-20.48s-9.1648-20.48-20.48-20.48z" fill="#666666" p-id="1383"></path></svg>