<?xml version="1.0" standalone="no"?><!DOCTYPE svg PUBLIC "-//W3C//DTD SVG 1.1//EN" "http://www.w3.org/Graphics/SVG/1.1/DTD/svg11.dtd"><svg t="1626940205586" class="icon" viewBox="0 0 1024 1024" version="1.1" xmlns="http://www.w3.org/2000/svg" p-id="1520" xmlns:xlink="http://www.w3.org/1999/xlink" width="200" height="200"><defs><style type="text/css">@font-face { font-family: feedback-iconfont; src: url("//at.alicdn.com/t/font_1031158_1uhr8ri0pk5.eot?#iefix") format("embedded-opentype"), url("//at.alicdn.com/t/font_1031158_1uhr8ri0pk5.woff2") format("woff2"), url("//at.alicdn.com/t/font_1031158_1uhr8ri0pk5.woff") format("woff"), url("//at.alicdn.com/t/font_1031158_1uhr8ri0pk5.ttf") format("truetype"), url("//at.alicdn.com/t/font_1031158_1uhr8ri0pk5.svg#iconfont") format("svg"); }
</style></defs><path d="M701.44 215.04H215.04c-11.264 0-20.48 9.216-20.48 20.48s9.216 20.48 20.48 20.48h486.4c11.264 0 20.48-9.216 20.48-20.48s-9.216-20.48-20.48-20.48z" fill="#666666" p-id="1521"></path><path d="M839.68 87.04H184.32c-33.792 0-61.44 27.648-61.44 61.44v727.04c0 33.792 27.648 61.44 61.44 61.44h343.04c11.3152 0 20.48-9.1648 20.48-20.48s-9.1648-20.48-20.48-20.48H184.32c-11.264 0-20.48-9.216-20.48-20.48V148.48c0-11.264 9.216-20.48 20.48-20.48h655.36c11.264 0 20.48 9.216 20.48 20.48v286.72c0 11.3152 9.1648 20.48 20.48 20.48s20.48-9.1648 20.48-20.48V148.48c0-33.792-27.648-61.44-61.44-61.44z" fill="#666666" p-id="1522"></path><path d="M212.6848 394.24h389.12c11.264 0 20.48-9.216 20.48-20.48s-9.216-20.48-20.48-20.48h-389.12c-11.264 0-20.48 9.216-20.48 20.48s9.216 20.48 20.48 20.48zM386.7648 501.76h-174.08c-11.264 0-20.48 9.216-20.48 20.48s9.216 20.48 20.48 20.48h174.08c11.264 0 20.48-9.216 20.48-20.48s-9.216-20.48-20.48-20.48zM556.8 803.84c10.3424 0 18.9952-7.68 20.2752-17.9712 9.9328-78.0288 76.6976-138.5984 157.3888-138.5984 80.6912 0 147.5072 60.5696 157.3888 138.5984 1.28 10.24 9.984 17.9712 20.2752 17.9712 12.2368 0 21.9136-10.6496 20.3776-22.784-12.288-98.5088-96.256-174.7456-198.0928-174.7456-101.8368 0-185.856 76.2368-198.0928 174.7456-1.4336 12.1344 8.2944 22.784 20.48 22.784z" fill="#008CFF" p-id="1523"></path></svg>